<svg width="740" height="662" viewBox="0 0 740 662" fill="none" xmlns="http://www.w3.org/2000/svg">
<rect x="679" y="530" width="1" height="191" fill="url(#paint0_linear_1408_67)"/>
<rect x="609" y="320" width="1" height="191" fill="url(#paint1_linear_1408_67)"/>
<rect x="739" y="100" width="1" height="191" fill="url(#paint2_linear_1408_67)"/>
<rect x="259" y="250" width="1" height="191" fill="url(#paint3_linear_1408_67)"/>
<rect x="199" y="310" width="1" height="191" fill="url(#paint4_linear_1408_67)"/>
<rect x="169" y="480" width="1" height="191" fill="url(#paint5_linear_1408_67)"/>
<path d="M364 747.096V219.246L530.909 275.35V747.096H364Z" fill="url(#paint6_linear_1408_67)"/>
<path d="M688.001 747.097V216.441L530.91 275.351V747.097H688.001Z" fill="url(#paint7_linear_1408_67)"/>
<path d="M522.421 164.354L687.241 217.191L530.851 275.399L364.643 219.616L522.421 164.354Z" fill="url(#paint8_linear_1408_67)"/>
<path d="M501 390.041L515.985 372L532.5 406.5L501 390.041Z" stroke="url(#paint9_linear_1408_67)" stroke-linecap="round"/>
<path d="M611 170.041L625.985 152L642.5 186.5L611 170.041Z" stroke="url(#paint10_linear_1408_67)" stroke-linecap="round"/>
<path d="M411 560.041L425.985 542L442.5 576.5L411 560.041Z" stroke="url(#paint11_linear_1408_67)" stroke-linecap="round"/>
<path d="M265 757.682V399.266L378.333 437.361V757.682H265Z" fill="url(#paint12_linear_1408_67)"/>
<path d="M485 757.681V397.361L378.333 437.361V757.681H485Z" fill="url(#paint13_linear_1408_67)"/>
<path d="M372.569 361.994L484.484 397.87L378.294 437.394L265.437 399.517L372.569 361.994Z" fill="url(#paint14_linear_1408_67)"/>
<path d="M120 808.401V502.118L216.848 534.672V808.401H120Z" fill="url(#paint15_linear_1408_67)"/>
<path d="M308 808.401V500.491L216.848 534.673V808.401H308Z" fill="url(#paint16_linear_1408_67)"/>
<path d="M211.923 470.267L307.559 500.926L216.814 534.701L120.373 502.333L211.923 470.267Z" fill="url(#paint17_linear_1408_67)"/>
<path d="M398.11 404.176H339.497L438.994 187.224H427.708L486.193 141L506.993 187.224H496.401L398.11 404.176Z" fill="black"/>
<path d="M398.11 404.176H339.497L438.994 187.224H427.708L486.193 141L506.993 187.224H496.401L398.11 404.176Z" fill="url(#paint18_linear_1408_67)"/>
<path d="M339.497 404.176L280.883 289.712H341.114L398.11 404.176H339.497Z" fill="black"/>
<path d="M339.497 404.176L280.883 289.712H341.114L398.11 404.176H339.497Z" fill="url(#paint19_linear_1408_67)"/>
<path d="M244.966 455.5H183.5L280.883 289.712H341.114L244.966 455.5Z" fill="black"/>
<path d="M244.966 455.5H183.5L280.883 289.712H341.114L244.966 455.5Z" fill="url(#paint20_linear_1408_67)"/>
<rect x="609" width="1" height="191" fill="url(#paint21_linear_1408_67)"/>
<rect x="379" y="20" width="1" height="191" fill="url(#paint22_linear_1408_67)"/>
<rect x="159" y="150" width="1" height="191" fill="url(#paint23_linear_1408_67)"/>
<rect opacity="0.2" y="450" width="1" height="191" fill="url(#paint24_linear_1408_67)"/>
<rect opacity="0.2" x="20" y="270" width="1" height="191" fill="url(#paint25_linear_1408_67)"/>
<rect x="739" y="400" width="1" height="191" fill="url(#paint26_linear_1408_67)"/>
<g filter="url(#filter0_b_1408_67)">
<circle cx="191" cy="427" r="41" fill="white" fill-opacity="0.1"/>
</g>
<path d="M189.056 410.928H192.512V415.216C194.368 415.429 195.872 416.091 197.024 417.2C198.197 418.288 198.837 419.813 198.944 421.776H195.424C195.339 421.136 195.157 420.603 194.88 420.176C194.603 419.749 194.251 419.408 193.824 419.152C193.397 418.875 192.907 418.683 192.352 418.576C191.819 418.448 191.221 418.384 190.56 418.384C190.133 418.384 189.664 418.416 189.152 418.48C188.64 418.544 188.181 418.683 187.776 418.896C187.349 419.109 186.997 419.419 186.72 419.824C186.443 420.208 186.304 420.688 186.304 421.264C186.304 422.011 186.475 422.608 186.816 423.056C187.157 423.504 187.595 423.867 188.128 424.144C188.683 424.4 189.291 424.603 189.952 424.752C190.635 424.88 191.307 425.008 191.968 425.136C193.035 425.328 194.027 425.552 194.944 425.808C195.861 426.064 196.651 426.427 197.312 426.896C197.995 427.365 198.528 427.963 198.912 428.688C199.296 429.413 199.488 430.331 199.488 431.44C199.488 432.571 199.296 433.552 198.912 434.384C198.528 435.195 198.005 435.877 197.344 436.432C196.704 436.965 195.947 437.381 195.072 437.68C194.219 437.957 193.312 438.128 192.352 438.192V442.384H188.928V438.096C187.925 437.968 186.997 437.733 186.144 437.392C185.312 437.029 184.576 436.56 183.936 435.984C183.317 435.408 182.816 434.736 182.432 433.968C182.048 433.179 181.813 432.283 181.728 431.28H185.44C185.568 431.963 185.824 432.539 186.208 433.008C186.592 433.456 187.051 433.819 187.584 434.096C188.117 434.373 188.693 434.576 189.312 434.704C189.931 434.811 190.539 434.864 191.136 434.864C191.712 434.864 192.277 434.821 192.832 434.736C193.387 434.629 193.877 434.459 194.304 434.224C194.752 433.968 195.115 433.637 195.392 433.232C195.669 432.805 195.808 432.283 195.808 431.664C195.808 430.939 195.595 430.384 195.168 430C194.763 429.595 194.24 429.285 193.6 429.072C192.981 428.837 192.299 428.667 191.552 428.56C190.827 428.453 190.144 428.325 189.504 428.176C188.48 427.963 187.541 427.696 186.688 427.376C185.835 427.035 185.088 426.608 184.448 426.096C183.829 425.584 183.339 424.965 182.976 424.24C182.635 423.515 182.464 422.64 182.464 421.616C182.464 420.592 182.645 419.696 183.008 418.928C183.392 418.16 183.883 417.52 184.48 417.008C185.099 416.475 185.803 416.069 186.592 415.792C187.381 415.493 188.203 415.291 189.056 415.184V410.928Z" fill="white"/>
<g filter="url(#filter1_b_1408_67)">
<circle cx="369" cy="482" r="41" fill="white" fill-opacity="0.1"/>
</g>
<path d="M372.464 493.256C369.904 493.256 367.813 492.627 366.192 491.368C364.571 490.088 363.451 488.275 362.832 485.928H359.408L359.92 482.952H362.448C362.427 482.525 362.416 482.099 362.416 481.672C362.416 481.245 362.448 480.829 362.512 480.424H359.504L360.016 477.448H362.928C363.568 475.101 364.677 473.299 366.256 472.04C367.856 470.781 369.893 470.152 372.368 470.152C373.819 470.152 375.077 470.365 376.144 470.792C377.211 471.197 378.192 471.848 379.088 472.744L377.168 475.368C376.421 474.728 375.685 474.248 374.96 473.928C374.235 473.608 373.36 473.448 372.336 473.448C370.971 473.448 369.797 473.8 368.816 474.504C367.856 475.187 367.184 476.168 366.8 477.448H375.248L374.736 480.424H366.16C366.117 480.829 366.096 481.256 366.096 481.704C366.096 482.131 366.117 482.547 366.16 482.952H374.256L373.744 485.928H366.8C367.12 487.208 367.803 488.211 368.848 488.936C369.893 489.64 371.12 489.992 372.528 489.992C373.552 489.992 374.437 489.853 375.184 489.576C375.931 489.277 376.677 488.776 377.424 488.072C377.744 488.499 378.053 488.915 378.352 489.32C378.672 489.725 378.981 490.141 379.28 490.568C378.427 491.464 377.435 492.136 376.304 492.584C375.173 493.032 373.893 493.256 372.464 493.256Z" fill="white"/>
<g filter="url(#filter2_b_1408_67)">
<circle cx="508" cy="332" r="41" fill="#0ABFC2" fill-opacity="0.1"/>
</g>
<path d="M483.518 331.068H487.126V327.394H489.26V331.068H492.89V333.224H489.26V336.92H487.126V333.224H483.518V331.068ZM500.578 340H498.026V328.032H494.858V326.294C495.723 326.265 496.486 326.125 497.146 325.876C497.806 325.612 498.327 325.135 498.708 324.446H500.578V340ZM507.658 334.192C508.01 333.884 508.399 333.547 508.824 333.18C509.264 332.813 509.675 332.432 510.056 332.036C510.452 331.625 510.775 331.185 511.024 330.716C511.288 330.247 511.42 329.741 511.42 329.198C511.42 328.406 511.186 327.768 510.716 327.284C510.247 326.8 509.572 326.558 508.692 326.558C507.988 326.558 507.394 326.719 506.91 327.042C506.426 327.365 506.126 327.797 506.008 328.34H503.5C503.559 327.665 503.742 327.064 504.05 326.536C504.373 326.008 504.776 325.575 505.26 325.238C505.744 324.901 506.272 324.659 506.844 324.512C507.431 324.351 508.098 324.27 508.846 324.27C509.55 324.27 510.21 324.365 510.826 324.556C511.442 324.747 511.978 325.033 512.432 325.414C512.902 325.795 513.268 326.279 513.532 326.866C513.811 327.438 513.95 328.113 513.95 328.89C513.95 329.506 513.87 330.071 513.708 330.584C513.547 331.097 513.327 331.574 513.048 332.014C512.77 332.454 512.447 332.865 512.08 333.246C511.728 333.627 511.354 333.987 510.958 334.324C510.43 334.779 509.961 335.175 509.55 335.512C509.154 335.835 508.795 336.128 508.472 336.392C508.15 336.656 507.856 336.898 507.592 337.118C507.328 337.323 507.079 337.529 506.844 337.734H513.95V340H503.368V337.91L507.658 334.192ZM519.622 331.442C519.05 331.442 518.544 331.347 518.104 331.156C517.678 330.965 517.312 330.709 517.004 330.386C516.71 330.063 516.49 329.682 516.344 329.242C516.197 328.802 516.124 328.325 516.124 327.812C516.124 326.756 516.417 325.891 517.004 325.216C517.605 324.527 518.478 324.182 519.622 324.182C520.736 324.182 521.587 324.527 522.174 325.216C522.775 325.891 523.076 326.756 523.076 327.812C523.076 328.325 522.995 328.802 522.834 329.242C522.687 329.682 522.467 330.063 522.174 330.386C521.88 330.709 521.521 330.965 521.096 331.156C520.67 331.347 520.179 331.442 519.622 331.442ZM517.928 340L527.696 324.446H530.204L520.436 340H517.928ZM519.622 326.096C519.064 326.096 518.676 326.272 518.456 326.624C518.236 326.961 518.126 327.357 518.126 327.812C518.126 328.281 518.236 328.685 518.456 329.022C518.676 329.359 519.064 329.528 519.622 329.528C520.15 329.528 520.516 329.359 520.722 329.022C520.927 328.67 521.03 328.267 521.03 327.812C521.03 327.357 520.927 326.961 520.722 326.624C520.516 326.272 520.15 326.096 519.622 326.096ZM528.642 340.242C528.07 340.242 527.564 340.147 527.124 339.956C526.698 339.765 526.332 339.509 526.024 339.186C525.73 338.863 525.51 338.482 525.364 338.042C525.217 337.602 525.144 337.125 525.144 336.612C525.144 335.556 525.437 334.691 526.024 334.016C526.625 333.327 527.498 332.982 528.642 332.982C529.756 332.982 530.614 333.327 531.216 334.016C531.817 334.691 532.118 335.556 532.118 336.612C532.118 337.125 532.037 337.602 531.876 338.042C531.729 338.482 531.509 338.863 531.216 339.186C530.922 339.509 530.556 339.765 530.116 339.956C529.69 340.147 529.199 340.242 528.642 340.242ZM528.62 334.896C528.092 334.896 527.71 335.065 527.476 335.402C527.256 335.739 527.146 336.143 527.146 336.612C527.146 337.081 527.256 337.485 527.476 337.822C527.71 338.159 528.092 338.328 528.62 338.328C529.162 338.328 529.536 338.159 529.742 337.822C529.947 337.47 530.05 337.067 530.05 336.612C530.05 336.377 530.028 336.157 529.984 335.952C529.94 335.747 529.859 335.571 529.742 335.424C529.639 335.263 529.492 335.138 529.302 335.05C529.126 334.947 528.898 334.896 528.62 334.896Z" fill="#00FBFF"/>
<rect x="193.797" y="268.405" width="23" height="23" transform="rotate(-49.957 193.797 268.405)" stroke="url(#paint27_linear_1408_67)"/>
<rect x="143.797" y="358.405" width="13" height="13" transform="rotate(-49.957 143.797 358.405)" stroke="url(#paint28_linear_1408_67)"/>
<rect x="503.797" y="588.405" width="13" height="13" transform="rotate(-49.957 503.797 588.405)" stroke="url(#paint29_linear_1408_67)"/>
<circle cx="525" cy="496" r="10.5" stroke="#06EBE6"/>
<circle cx="712" cy="401" r="10.5" stroke="#D9D9D9"/>
<circle cx="363" cy="106" r="10.5" stroke="#D9D9D9"/>
<circle opacity="0.1" cx="45" cy="461" r="10.5" stroke="#D9D9D9"/>
<g filter="url(#filter3_b_1408_67)">
<rect x="133" y="512" width="158" height="62" rx="31" fill="white" fill-opacity="0.1"/>
</g>
<path d="M161.518 542.068H165.126V538.394H167.26V542.068H170.89V544.224H167.26V547.92H165.126V544.224H161.518V542.068ZM177.258 545.192C177.61 544.884 177.999 544.547 178.424 544.18C178.864 543.813 179.275 543.432 179.656 543.036C180.052 542.625 180.375 542.185 180.624 541.716C180.888 541.247 181.02 540.741 181.02 540.198C181.02 539.406 180.785 538.768 180.316 538.284C179.847 537.8 179.172 537.558 178.292 537.558C177.588 537.558 176.994 537.719 176.51 538.042C176.026 538.365 175.725 538.797 175.608 539.34H173.1C173.159 538.665 173.342 538.064 173.65 537.536C173.973 537.008 174.376 536.575 174.86 536.238C175.344 535.901 175.872 535.659 176.444 535.512C177.031 535.351 177.698 535.27 178.446 535.27C179.15 535.27 179.81 535.365 180.426 535.556C181.042 535.747 181.577 536.033 182.032 536.414C182.501 536.795 182.868 537.279 183.132 537.866C183.411 538.438 183.55 539.113 183.55 539.89C183.55 540.506 183.469 541.071 183.308 541.584C183.147 542.097 182.927 542.574 182.648 543.014C182.369 543.454 182.047 543.865 181.68 544.246C181.328 544.627 180.954 544.987 180.558 545.324C180.03 545.779 179.561 546.175 179.15 546.512C178.754 546.835 178.395 547.128 178.072 547.392C177.749 547.656 177.456 547.898 177.192 548.118C176.928 548.323 176.679 548.529 176.444 548.734H183.55V551H172.968V548.91L177.258 545.192ZM194.611 543.564C194.391 543.901 194.134 544.187 193.841 544.422C193.548 544.657 193.225 544.855 192.873 545.016C192.536 545.163 192.176 545.273 191.795 545.346C191.414 545.419 191.032 545.456 190.651 545.456C189.918 545.456 189.243 545.346 188.627 545.126C188.026 544.891 187.498 544.561 187.043 544.136C186.588 543.711 186.236 543.19 185.987 542.574C185.738 541.958 185.613 541.261 185.613 540.484C185.613 539.692 185.752 538.973 186.031 538.328C186.324 537.683 186.713 537.14 187.197 536.7C187.696 536.245 188.275 535.901 188.935 535.666C189.61 535.417 190.336 535.292 191.113 535.292C192.198 535.277 193.137 535.519 193.929 536.018C194.736 536.502 195.352 537.118 195.777 537.866C196.217 538.599 196.525 539.443 196.701 540.396C196.892 541.335 197.002 542.281 197.031 543.234C197.031 544.231 196.936 545.207 196.745 546.16C196.554 547.113 196.224 547.964 195.755 548.712C195.3 549.445 194.684 550.039 193.907 550.494C193.13 550.934 192.154 551.154 190.981 551.154C190.336 551.154 189.72 551.081 189.133 550.934C188.561 550.773 188.04 550.538 187.571 550.23C187.102 549.907 186.706 549.511 186.383 549.042C186.06 548.558 185.848 547.986 185.745 547.326H188.363C188.554 547.854 188.898 548.25 189.397 548.514C189.896 548.763 190.424 548.888 190.981 548.888C191.421 548.888 191.81 548.829 192.147 548.712C192.484 548.58 192.785 548.411 193.049 548.206C193.313 548.001 193.54 547.759 193.731 547.48C193.922 547.187 194.076 546.879 194.193 546.556C194.384 546.072 194.501 545.581 194.545 545.082C194.589 544.569 194.611 544.063 194.611 543.564ZM188.165 540.33C188.165 541.225 188.422 541.929 188.935 542.442C189.463 542.955 190.167 543.212 191.047 543.212C191.443 543.212 191.817 543.153 192.169 543.036C192.536 542.904 192.851 542.728 193.115 542.508C193.379 542.273 193.584 541.995 193.731 541.672C193.892 541.335 193.98 540.968 193.995 540.572C193.995 540.161 193.929 539.773 193.797 539.406C193.665 539.039 193.474 538.724 193.225 538.46C192.976 538.181 192.668 537.961 192.301 537.8C191.949 537.639 191.553 537.558 191.113 537.558C190.262 537.558 189.558 537.807 189.001 538.306C188.458 538.805 188.18 539.479 188.165 540.33ZM217.418 543.212C217.418 544.4 217.293 545.485 217.044 546.468C216.809 547.436 216.435 548.265 215.922 548.954C215.423 549.643 214.793 550.179 214.03 550.56C213.267 550.941 212.365 551.132 211.324 551.132C210.283 551.132 209.381 550.949 208.618 550.582C207.855 550.201 207.225 549.673 206.726 548.998C206.227 548.323 205.853 547.509 205.604 546.556C205.355 545.603 205.23 544.539 205.23 543.366C205.23 542.163 205.347 541.063 205.582 540.066C205.817 539.069 206.183 538.211 206.682 537.492C207.181 536.773 207.811 536.223 208.574 535.842C209.351 535.446 210.268 535.248 211.324 535.248C212.351 535.248 213.245 535.439 214.008 535.82C214.771 536.201 215.401 536.744 215.9 537.448C216.413 538.152 216.795 538.995 217.044 539.978C217.293 540.946 217.418 542.024 217.418 543.212ZM207.76 543.212C207.76 544.019 207.819 544.767 207.936 545.456C208.053 546.145 208.251 546.747 208.53 547.26C208.809 547.759 209.175 548.155 209.63 548.448C210.085 548.727 210.649 548.866 211.324 548.866C211.984 548.866 212.541 548.727 212.996 548.448C213.451 548.155 213.817 547.759 214.096 547.26C214.375 546.747 214.573 546.145 214.69 545.456C214.807 544.767 214.866 544.019 214.866 543.212C214.866 542.42 214.807 541.679 214.69 540.99C214.573 540.286 214.375 539.685 214.096 539.186C213.817 538.673 213.451 538.269 212.996 537.976C212.541 537.683 211.984 537.536 211.324 537.536C210.649 537.536 210.085 537.683 209.63 537.976C209.175 538.269 208.809 538.673 208.53 539.186C208.251 539.685 208.053 540.286 207.936 540.99C207.819 541.679 207.76 542.42 207.76 543.212ZM231.877 543.212C231.877 544.4 231.752 545.485 231.503 546.468C231.268 547.436 230.894 548.265 230.381 548.954C229.882 549.643 229.252 550.179 228.489 550.56C227.726 550.941 226.824 551.132 225.783 551.132C224.742 551.132 223.84 550.949 223.077 550.582C222.314 550.201 221.684 549.673 221.185 548.998C220.686 548.323 220.312 547.509 220.063 546.556C219.814 545.603 219.689 544.539 219.689 543.366C219.689 542.163 219.806 541.063 220.041 540.066C220.276 539.069 220.642 538.211 221.141 537.492C221.64 536.773 222.27 536.223 223.033 535.842C223.81 535.446 224.727 535.248 225.783 535.248C226.81 535.248 227.704 535.439 228.467 535.82C229.23 536.201 229.86 536.744 230.359 537.448C230.872 538.152 231.254 538.995 231.503 539.978C231.752 540.946 231.877 542.024 231.877 543.212ZM222.219 543.212C222.219 544.019 222.278 544.767 222.395 545.456C222.512 546.145 222.71 546.747 222.989 547.26C223.268 547.759 223.634 548.155 224.089 548.448C224.544 548.727 225.108 548.866 225.783 548.866C226.443 548.866 227 548.727 227.455 548.448C227.91 548.155 228.276 547.759 228.555 547.26C228.834 546.747 229.032 546.145 229.149 545.456C229.266 544.767 229.325 544.019 229.325 543.212C229.325 542.42 229.266 541.679 229.149 540.99C229.032 540.286 228.834 539.685 228.555 539.186C228.276 538.673 227.91 538.269 227.455 537.976C227 537.683 226.443 537.536 225.783 537.536C225.108 537.536 224.544 537.683 224.089 537.976C223.634 538.269 223.268 538.673 222.989 539.186C222.71 539.685 222.512 540.286 222.395 540.99C222.278 541.679 222.219 542.42 222.219 543.212ZM246.336 543.212C246.336 544.4 246.211 545.485 245.962 546.468C245.727 547.436 245.353 548.265 244.84 548.954C244.341 549.643 243.711 550.179 242.948 550.56C242.185 550.941 241.283 551.132 240.242 551.132C239.201 551.132 238.299 550.949 237.536 550.582C236.773 550.201 236.143 549.673 235.644 548.998C235.145 548.323 234.771 547.509 234.522 546.556C234.273 545.603 234.148 544.539 234.148 543.366C234.148 542.163 234.265 541.063 234.5 540.066C234.735 539.069 235.101 538.211 235.6 537.492C236.099 536.773 236.729 536.223 237.492 535.842C238.269 535.446 239.186 535.248 240.242 535.248C241.269 535.248 242.163 535.439 242.926 535.82C243.689 536.201 244.319 536.744 244.818 537.448C245.331 538.152 245.713 538.995 245.962 539.978C246.211 540.946 246.336 542.024 246.336 543.212ZM236.678 543.212C236.678 544.019 236.737 544.767 236.854 545.456C236.971 546.145 237.169 546.747 237.448 547.26C237.727 547.759 238.093 548.155 238.548 548.448C239.003 548.727 239.567 548.866 240.242 548.866C240.902 548.866 241.459 548.727 241.914 548.448C242.369 548.155 242.735 547.759 243.014 547.26C243.293 546.747 243.491 546.145 243.608 545.456C243.725 544.767 243.784 544.019 243.784 543.212C243.784 542.42 243.725 541.679 243.608 540.99C243.491 540.286 243.293 539.685 243.014 539.186C242.735 538.673 242.369 538.269 241.914 537.976C241.459 537.683 240.902 537.536 240.242 537.536C239.567 537.536 239.003 537.683 238.548 537.976C238.093 538.269 237.727 538.673 237.448 539.186C237.169 539.685 236.971 540.286 236.854 540.99C236.737 541.679 236.678 542.42 236.678 543.212ZM253.689 532.388H256.065V535.336C257.341 535.483 258.375 535.937 259.167 536.7C259.974 537.448 260.414 538.497 260.487 539.846H258.067C258.008 539.406 257.884 539.039 257.693 538.746C257.502 538.453 257.26 538.218 256.967 538.042C256.674 537.851 256.336 537.719 255.955 537.646C255.588 537.558 255.178 537.514 254.723 537.514C254.43 537.514 254.107 537.536 253.755 537.58C253.403 537.624 253.088 537.719 252.809 537.866C252.516 538.013 252.274 538.225 252.083 538.504C251.892 538.768 251.797 539.098 251.797 539.494C251.797 540.007 251.914 540.418 252.149 540.726C252.384 541.034 252.684 541.283 253.051 541.474C253.432 541.65 253.85 541.789 254.305 541.892C254.774 541.98 255.236 542.068 255.691 542.156C256.424 542.288 257.106 542.442 257.737 542.618C258.368 542.794 258.91 543.043 259.365 543.366C259.834 543.689 260.201 544.099 260.465 544.598C260.729 545.097 260.861 545.727 260.861 546.49C260.861 547.267 260.729 547.942 260.465 548.514C260.201 549.071 259.842 549.541 259.387 549.922C258.947 550.289 258.426 550.575 257.825 550.78C257.238 550.971 256.615 551.088 255.955 551.132V554.014H253.601V551.066C252.912 550.978 252.274 550.817 251.687 550.582C251.115 550.333 250.609 550.01 250.169 549.614C249.744 549.218 249.399 548.756 249.135 548.228C248.871 547.685 248.71 547.069 248.651 546.38H251.203C251.291 546.849 251.467 547.245 251.731 547.568C251.995 547.876 252.31 548.125 252.677 548.316C253.044 548.507 253.44 548.646 253.865 548.734C254.29 548.807 254.708 548.844 255.119 548.844C255.515 548.844 255.904 548.815 256.285 548.756C256.666 548.683 257.004 548.565 257.297 548.404C257.605 548.228 257.854 548.001 258.045 547.722C258.236 547.429 258.331 547.069 258.331 546.644C258.331 546.145 258.184 545.764 257.891 545.5C257.612 545.221 257.253 545.009 256.813 544.862C256.388 544.701 255.918 544.583 255.405 544.51C254.906 544.437 254.437 544.349 253.997 544.246C253.293 544.099 252.648 543.916 252.061 543.696C251.474 543.461 250.961 543.168 250.521 542.816C250.096 542.464 249.758 542.039 249.509 541.54C249.274 541.041 249.157 540.44 249.157 539.736C249.157 539.032 249.282 538.416 249.531 537.888C249.795 537.36 250.132 536.92 250.543 536.568C250.968 536.201 251.452 535.923 251.995 535.732C252.538 535.527 253.102 535.387 253.689 535.314V532.388Z" fill="white"/>
<defs>
<filter id="filter0_b_1408_67" x="106" y="342" width="170" height="170" filterUnits="userSpaceOnUse" color-interpolation-filters="sRGB">
<feFlood flood-opacity="0" result="BackgroundImageFix"/>
<feGaussianBlur in="BackgroundImageFix" stdDeviation="22"/>
<feComposite in2="SourceAlpha" operator="in" result="effect1_backgroundBlur_1408_67"/>
<feBlend mode="normal" in="SourceGraphic" in2="effect1_backgroundBlur_1408_67" result="shape"/>
</filter>
<filter id="filter1_b_1408_67" x="284" y="397" width="170" height="170" filterUnits="userSpaceOnUse" color-interpolation-filters="sRGB">
<feFlood flood-opacity="0" result="BackgroundImageFix"/>
<feGaussianBlur in="BackgroundImageFix" stdDeviation="22"/>
<feComposite in2="SourceAlpha" operator="in" result="effect1_backgroundBlur_1408_67"/>
<feBlend mode="normal" in="SourceGraphic" in2="effect1_backgroundBlur_1408_67" result="shape"/>
</filter>
<filter id="filter2_b_1408_67" x="423" y="247" width="170" height="170" filterUnits="userSpaceOnUse" color-interpolation-filters="sRGB">
<feFlood flood-opacity="0" result="BackgroundImageFix"/>
<feGaussianBlur in="BackgroundImageFix" stdDeviation="22"/>
<feComposite in2="SourceAlpha" operator="in" result="effect1_backgroundBlur_1408_67"/>
<feBlend mode="normal" in="SourceGraphic" in2="effect1_backgroundBlur_1408_67" result="shape"/>
</filter>
<filter id="filter3_b_1408_67" x="89" y="468" width="246" height="150" filterUnits="userSpaceOnUse" color-interpolation-filters="sRGB">
<feFlood flood-opacity="0" result="BackgroundImageFix"/>
<feGaussianBlur in="BackgroundImageFix" stdDeviation="22"/>
<feComposite in2="SourceAlpha" operator="in" result="effect1_backgroundBlur_1408_67"/>
<feBlend mode="normal" in="SourceGraphic" in2="effect1_backgroundBlur_1408_67" result="shape"/>
</filter>
<linearGradient id="paint0_linear_1408_67" x1="679.5" y1="530" x2="679.5" y2="721" gradientUnits="userSpaceOnUse">
<stop offset="0.172601" stop-color="#2E8D99" stop-opacity="0"/>
<stop offset="0.507028" stop-color="#00B5FF"/>
<stop offset="0.868043" stop-color="#2E3699" stop-opacity="0"/>
</linearGradient>
<linearGradient id="paint1_linear_1408_67" x1="609.5" y1="320" x2="609.5" y2="511" gradientUnits="userSpaceOnUse">
<stop offset="0.172601" stop-color="#2E8D99" stop-opacity="0"/>
<stop offset="0.507028" stop-color="#00B5FF"/>
<stop offset="0.868043" stop-color="#2E3699" stop-opacity="0"/>
</linearGradient>
<linearGradient id="paint2_linear_1408_67" x1="739.5" y1="100" x2="739.5" y2="291" gradientUnits="userSpaceOnUse">
<stop offset="0.172601" stop-color="#2E8D99" stop-opacity="0"/>
<stop offset="0.507028" stop-color="#00B5FF"/>
<stop offset="0.868043" stop-color="#2E3699" stop-opacity="0"/>
</linearGradient>
<linearGradient id="paint3_linear_1408_67" x1="259.5" y1="250" x2="259.5" y2="441" gradientUnits="userSpaceOnUse">
<stop offset="0.172601" stop-color="#2E8D99" stop-opacity="0"/>
<stop offset="0.507028" stop-color="white"/>
<stop offset="0.868043" stop-color="#2E3699" stop-opacity="0"/>
</linearGradient>
<linearGradient id="paint4_linear_1408_67" x1="199.5" y1="310" x2="199.5" y2="501" gradientUnits="userSpaceOnUse">
<stop offset="0.172601" stop-color="#2E8D99" stop-opacity="0"/>
<stop offset="0.507028" stop-color="white"/>
<stop offset="0.868043" stop-color="#2E3699" stop-opacity="0"/>
</linearGradient>
<linearGradient id="paint5_linear_1408_67" x1="169.5" y1="480" x2="169.5" y2="671" gradientUnits="userSpaceOnUse">
<stop offset="0.172601" stop-color="#2E8D99" stop-opacity="0"/>
<stop offset="0.507028" stop-color="#00B5FF"/>
<stop offset="0.868043" stop-color="#2E3699" stop-opacity="0"/>
</linearGradient>
<linearGradient id="paint6_linear_1408_67" x1="393.455" y1="210.04" x2="247.654" y2="810.914" gradientUnits="userSpaceOnUse">
<stop stop-color="#00CDC2"/>
<stop offset="1" stop-color="#0D1A8C" stop-opacity="0"/>
</linearGradient>
<linearGradient id="paint7_linear_1408_67" x1="703.216" y1="282.411" x2="563.713" y2="638.681" gradientUnits="userSpaceOnUse">
<stop stop-color="#009B90"/>
<stop offset="1" stop-color="#16134E" stop-opacity="0"/>
</linearGradient>
<linearGradient id="paint8_linear_1408_67" x1="665.992" y1="199.678" x2="550.237" y2="345.864" gradientUnits="userSpaceOnUse">
<stop stop-color="white"/>
<stop offset="1" stop-color="#87D7FD"/>
</linearGradient>
<linearGradient id="paint9_linear_1408_67" x1="526.553" y1="374.245" x2="499.417" y2="408.215" gradientUnits="userSpaceOnUse">
<stop stop-color="white"/>
<stop offset="1" stop-color="white" stop-opacity="0"/>
</linearGradient>
<linearGradient id="paint10_linear_1408_67" x1="636.553" y1="154.245" x2="609.417" y2="188.215" gradientUnits="userSpaceOnUse">
<stop stop-color="white"/>
<stop offset="1" stop-color="white" stop-opacity="0"/>
</linearGradient>
<linearGradient id="paint11_linear_1408_67" x1="436.553" y1="544.245" x2="409.417" y2="578.215" gradientUnits="userSpaceOnUse">
<stop stop-color="white"/>
<stop offset="1" stop-color="white" stop-opacity="0"/>
</linearGradient>
<linearGradient id="paint12_linear_1408_67" x1="285" y1="393.015" x2="186" y2="801.015" gradientUnits="userSpaceOnUse">
<stop stop-color="#00CDC2"/>
<stop offset="1" stop-color="#0D1A8C" stop-opacity="0"/>
</linearGradient>
<linearGradient id="paint13_linear_1408_67" x1="495.331" y1="442.155" x2="400.607" y2="684.066" gradientUnits="userSpaceOnUse">
<stop stop-color="#009B90"/>
<stop offset="1" stop-color="#16134E" stop-opacity="0"/>
</linearGradient>
<linearGradient id="paint14_linear_1408_67" x1="470.056" y1="385.979" x2="391.457" y2="485.241" gradientUnits="userSpaceOnUse">
<stop stop-color="white"/>
<stop offset="1" stop-color="#87D7FD"/>
</linearGradient>
<linearGradient id="paint15_linear_1408_67" x1="137.091" y1="496.776" x2="52.4908" y2="845.431" gradientUnits="userSpaceOnUse">
<stop stop-color="#00CDC2"/>
<stop offset="1" stop-color="#0D1A8C" stop-opacity="0"/>
</linearGradient>
<linearGradient id="paint16_linear_1408_67" x1="316.829" y1="538.77" x2="235.882" y2="745.494" gradientUnits="userSpaceOnUse">
<stop stop-color="#009B90"/>
<stop offset="1" stop-color="#16134E" stop-opacity="0"/>
</linearGradient>
<linearGradient id="paint17_linear_1408_67" x1="295.229" y1="490.764" x2="228.063" y2="575.588" gradientUnits="userSpaceOnUse">
<stop stop-color="white"/>
<stop offset="1" stop-color="#87D7FD"/>
</linearGradient>
<linearGradient id="paint18_linear_1408_67" x1="231.75" y1="176.149" x2="514.93" y2="923.313" gradientUnits="userSpaceOnUse">
<stop stop-color="#04FBF3"/>
<stop offset="0.482292" stop-color="#191038"/>
</linearGradient>
<linearGradient id="paint19_linear_1408_67" x1="750.868" y1="-261.617" x2="198.66" y2="511.469" gradientUnits="userSpaceOnUse">
<stop offset="0.576042" stop-color="#191039"/>
<stop offset="1" stop-color="#03B4C5"/>
</linearGradient>
<linearGradient id="paint20_linear_1408_67" x1="311.084" y1="263.562" x2="178.391" y2="595.295" gradientUnits="userSpaceOnUse">
<stop stop-color="#04FBF3"/>
<stop offset="1" stop-color="#1B1136"/>
</linearGradient>
<linearGradient id="paint21_linear_1408_67" x1="609.5" y1="0" x2="609.5" y2="191" gradientUnits="userSpaceOnUse">
<stop offset="0.172601" stop-color="#2E8D99" stop-opacity="0"/>
<stop offset="0.507028" stop-color="#00B5FF"/>
<stop offset="0.868043" stop-color="#2E3699" stop-opacity="0"/>
</linearGradient>
<linearGradient id="paint22_linear_1408_67" x1="379.5" y1="20" x2="379.5" y2="211" gradientUnits="userSpaceOnUse">
<stop offset="0.172601" stop-color="#2E8D99" stop-opacity="0"/>
<stop offset="0.507028" stop-color="#00B5FF"/>
<stop offset="0.868043" stop-color="#2E3699" stop-opacity="0"/>
</linearGradient>
<linearGradient id="paint23_linear_1408_67" x1="159.5" y1="150" x2="159.5" y2="341" gradientUnits="userSpaceOnUse">
<stop offset="0.172601" stop-color="#2E8D99" stop-opacity="0"/>
<stop offset="0.507028" stop-color="#00B5FF"/>
<stop offset="0.868043" stop-color="#2E3699" stop-opacity="0"/>
</linearGradient>
<linearGradient id="paint24_linear_1408_67" x1="0.5" y1="450" x2="0.5" y2="641" gradientUnits="userSpaceOnUse">
<stop offset="0.172601" stop-color="#2E8D99" stop-opacity="0"/>
<stop offset="0.507028" stop-color="#00B5FF"/>
<stop offset="0.868043" stop-color="#2E3699" stop-opacity="0"/>
</linearGradient>
<linearGradient id="paint25_linear_1408_67" x1="20.5" y1="270" x2="20.5" y2="461" gradientUnits="userSpaceOnUse">
<stop offset="0.172601" stop-color="#2E8D99" stop-opacity="0"/>
<stop offset="0.507028" stop-color="#00B5FF"/>
<stop offset="0.868043" stop-color="#2E3699" stop-opacity="0"/>
</linearGradient>
<linearGradient id="paint26_linear_1408_67" x1="739.5" y1="400" x2="739.5" y2="591" gradientUnits="userSpaceOnUse">
<stop offset="0.172601" stop-color="#2E8D99" stop-opacity="0"/>
<stop offset="0.507028" stop-color="#00B5FF"/>
<stop offset="0.868043" stop-color="#2E3699" stop-opacity="0"/>
</linearGradient>
<linearGradient id="paint27_linear_1408_67" x1="205.093" y1="268.466" x2="190.547" y2="292.69" gradientUnits="userSpaceOnUse">
<stop stop-color="#01B1FB"/>
<stop offset="1" stop-color="#01B1FB" stop-opacity="0"/>
</linearGradient>
<linearGradient id="paint28_linear_1408_67" x1="150.093" y1="358.466" x2="141.608" y2="372.597" gradientUnits="userSpaceOnUse">
<stop stop-color="#01B1FB"/>
<stop offset="1" stop-color="#01B1FB" stop-opacity="0"/>
</linearGradient>
<linearGradient id="paint29_linear_1408_67" x1="510.093" y1="588.466" x2="501.608" y2="602.597" gradientUnits="userSpaceOnUse">
<stop stop-color="#01B1FB"/>
<stop offset="1" stop-color="#01B1FB" stop-opacity="0"/>
</linearGradient>
</defs>
</svg>
